<svg width="24" height="24" xmlns="http://www.w3.org/2000/svg" fill="#41b35d">
    <path d="m4.968,22.925l-0.648,0.057a2.692,2.692 0 0 1 -1.978,-0.625a2.69,2.69 0 0 1 -0.96,-1.84l-1.372,-15.697a2.702,2.702 0 0 1 0.79,-2.156c0.47,-0.472 1.111,-0.731 1.774,-0.79l2.58,-0.225a0.498,0.498 0 0 1 0.507,0.675a4.189,4.189 0 0 0 -0.251,1.11l-1.393,15.916a4.206,4.206 0 0 0 0.977,3.091s0.459,0.364 -0.026,0.485m8.524,-16.327a1.75,1.75 0 1 1 -3.485,0.305a1.75,1.75 0 0 1 3.485,-0.305m5.85,3.011a0.797,0.797 0 0 0 -1.129,-0.093l-3.733,3.195a0.545,0.545 0 0 0 -0.062,0.765l0.837,0.993a0.75,0.75 0 1 1 -1.147,0.966l-2.502,-2.981a0.797,0.797 0 0 0 -1.096,-0.12l-3.51,2.665l-0.5,4.25c-0.06,0.674 0.326,2.19 1,2.25l11.916,1.166c0.325,0.026 1,-0.039 1.25,-0.25c0.252,-0.21 0.89,-0.842 0.917,-1.166l0.833,-8.084l-3.073,-3.557l-0.001,0.001z"/>
    <path d="m19.61,23.463l-11.604,-1.015a2.77,2.77 0 0 1 -2.512,-2.995l1.386,-15.863a2.77,2.77 0 0 1 2.996,-2.51l11.603,1.015a2.77,2.77 0 0 1 2.513,2.994l-1.388,15.862a2.77,2.77 0 0 1 -2.994,2.513l0,-0.001zm0.13,-1.494l0.082,0.004a1.27,1.27 0 0 0 1.287,-1.154l1.388,-15.862a1.27,1.27 0 0 0 -1.148,-1.37l-11.604,-1.014a1.27,1.27 0 0 0 -1.37,1.15l-1.387,15.86a1.27,1.27 0 0 0 1.149,1.37l11.603,1.016z"/>
</svg>